<?xml version="1.0" standalone="no"?>
<!DOCTYPE svg PUBLIC "-//W3C//DTD SVG 20010904//EN"
 "http://www.w3.org/TR/2001/REC-SVG-20010904/DTD/svg10.dtd">
<svg version="1.0" xmlns="http://www.w3.org/2000/svg"
 width="64.000000pt" height="54.000000pt" viewBox="0 0 64.000000 54.000000"
 preserveAspectRatio="xMidYMid meet">

<g transform="translate(0.000000,54.000000) scale(0.100000,-0.100000)"
fill="#000000" stroke="none">
<path d="M42 293 l-42 -57 0 -113 0 -113 130 0 130 0 0 110 0 110 -55 0 c-30
0 -55 3 -55 7 0 3 14 30 30 60 l30 53 -63 0 -63 0 -42 -57z"/>
<path d="M362 293 l-42 -57 0 -113 0 -113 130 0 130 0 0 110 0 110 -55 0 c-30
0 -55 3 -55 7 0 3 14 30 30 60 l30 53 -63 0 -63 0 -42 -57z"/>
</g>
</svg>
